<mxfile host="app.diagrams.net" agent="Mozilla/5.0 (Windows NT 10.0; Win64; x64) AppleWebKit/537.36 (KHTML, like Gecko) Chrome/132.0.0.0 Safari/537.36 OPR/117.0.0.0" version="26.2.9">
  <diagram name="Страница — 1" id="tdAZzgNUMgtVYvWyPgPF">
    <mxGraphModel dx="661" dy="301" grid="1" gridSize="10" guides="1" tooltips="1" connect="1" arrows="1" fold="1" page="1" pageScale="1" pageWidth="827" pageHeight="1169" math="0" shadow="0">
      <root>
        <mxCell id="0" />
        <mxCell id="1" parent="0" />
        <mxCell id="E6-yirkYFa7ml9Z5MGPU-1" value="Id песни&lt;div&gt;Название песни&lt;/div&gt;" style="rounded=0;whiteSpace=wrap;html=1;" vertex="1" parent="1">
          <mxGeometry x="120" y="70" width="120" height="60" as="geometry" />
        </mxCell>
        <mxCell id="E6-yirkYFa7ml9Z5MGPU-2" value="Кол-во прослушиваний" style="rounded=0;whiteSpace=wrap;html=1;" vertex="1" parent="1">
          <mxGeometry x="260" y="70" width="136" height="60" as="geometry" />
        </mxCell>
        <mxCell id="E6-yirkYFa7ml9Z5MGPU-3" value="Id плейлиста&lt;div&gt;Название плейлиста&lt;/div&gt;" style="rounded=0;whiteSpace=wrap;html=1;" vertex="1" parent="1">
          <mxGeometry x="120" y="160" width="120" height="60" as="geometry" />
        </mxCell>
        <mxCell id="E6-yirkYFa7ml9Z5MGPU-4" value="Id песни&lt;div&gt;Название песни&lt;/div&gt;" style="rounded=0;whiteSpace=wrap;html=1;" vertex="1" parent="1">
          <mxGeometry x="268" y="160" width="120" height="60" as="geometry" />
        </mxCell>
        <mxCell id="E6-yirkYFa7ml9Z5MGPU-5" value="" style="endArrow=classic;html=1;rounded=0;" edge="1" parent="1" source="E6-yirkYFa7ml9Z5MGPU-1" target="E6-yirkYFa7ml9Z5MGPU-2">
          <mxGeometry width="50" height="50" relative="1" as="geometry">
            <mxPoint x="360" y="190" as="sourcePoint" />
            <mxPoint x="410" y="140" as="targetPoint" />
          </mxGeometry>
        </mxCell>
        <mxCell id="E6-yirkYFa7ml9Z5MGPU-6" value="" style="endArrow=classic;html=1;rounded=0;" edge="1" parent="1" source="E6-yirkYFa7ml9Z5MGPU-3" target="E6-yirkYFa7ml9Z5MGPU-4">
          <mxGeometry width="50" height="50" relative="1" as="geometry">
            <mxPoint x="250" y="110" as="sourcePoint" />
            <mxPoint x="270" y="110" as="targetPoint" />
          </mxGeometry>
        </mxCell>
        <mxCell id="E6-yirkYFa7ml9Z5MGPU-7" value="Прослушанные песни" style="text;html=1;align=center;verticalAlign=middle;resizable=0;points=[];autosize=1;strokeColor=none;fillColor=none;" vertex="1" parent="1">
          <mxGeometry x="253" y="30" width="150" height="30" as="geometry" />
        </mxCell>
        <mxCell id="E6-yirkYFa7ml9Z5MGPU-8" value="Песни" style="text;html=1;align=center;verticalAlign=middle;resizable=0;points=[];autosize=1;strokeColor=none;fillColor=none;" vertex="1" parent="1">
          <mxGeometry x="150" y="30" width="60" height="30" as="geometry" />
        </mxCell>
        <mxCell id="E6-yirkYFa7ml9Z5MGPU-9" value="Плейлисты&lt;span style=&quot;white-space: pre;&quot;&gt;&#x9;&lt;/span&gt;" style="text;html=1;align=center;verticalAlign=middle;resizable=0;points=[];autosize=1;strokeColor=none;fillColor=none;" vertex="1" parent="1">
          <mxGeometry x="133" y="130" width="100" height="30" as="geometry" />
        </mxCell>
        <mxCell id="E6-yirkYFa7ml9Z5MGPU-10" value="Песни плейлиста" style="text;html=1;align=center;verticalAlign=middle;resizable=0;points=[];autosize=1;strokeColor=none;fillColor=none;" vertex="1" parent="1">
          <mxGeometry x="268" y="130" width="120" height="30" as="geometry" />
        </mxCell>
      </root>
    </mxGraphModel>
  </diagram>
</mxfile>
